#!OML:ASF H:\ManfredETheater\Project 1\Capture day 1\Session 1\subject.ASF
:FULLY-SPECIFIED
:DEGREES
109
root 3.20987 21.5421 -4.56798 -180.69 -19.4716 186.235
lowerback 20.0953 2.50917 0.589339
upperback 6.86065 2.40376 0.224575
thorax -3.79157 0.759909 -0.614383
lowerneck -6.06358 -6.79573 -9.67712
upperneck 8.74412 -9.12725 8.56088
head 4.44385 -4.42599 3.63147
rclavicle -1.63003e-014 7.15625e-015
rhumerus -0.0581948 2.25274 -20.3924
rradius 50.7809
rwrist -2.18522
rhand -23.5829 -3.77727
rfingers 7.12502
rthumb 2.88018 -33.7376
lclavicle -1.63003e-014 7.15625e-015
lhumerus -68.4478 -17.0807 70.0672
lradius 60.8674
lwrist 9.15428
lhand -20.193 -13.4813
lfingers 7.12502
lthumb 6.1535 16.4093
rfemur -39.9363 -6.10529 20.7984
rtibia 39.2907
rfoot -0.765783 -11.6603
rtoes -26.2421
lfemur -47.6312 1.2012 -15.6188
ltibia 44.4419
lfoot 3.61501 -5.96213
ltoes -15.8659
110
root 3.15703 21.2941 -5.01956 -180.782 -19.2285 186.004
lowerback 19.4941 2.64607 0.324504
upperback 6.84492 2.55294 0.136196
thorax -3.50597 0.844988 -0.574207
lowerneck -6.02784 -6.81492 -9.67488
upperneck 9.07142 -9.18834 8.5573
head 4.54278 -4.45942 3.62302
rclavicle 7.91163e-014 -4.21423e-014
rhumerus 1.96647 -0.0261372 -20.216
rradius 50.371
rwrist -3.38856
rhand -23.8071 -4.1432
rfingers 7.12502
rthumb 2.66368 -34.1063
lclavicle 7.91163e-014 -4.21423e-014
lhumerus -71.0125 -17.3352 70.8053
lradius 62.4451
lwrist 10.8592
lhand -19.9026 -12.926
lfingers 7.12502
lthumb 6.43383 16.9563
rfemur -38.9706 -6.0215 20.4755
rtibia 38.2826
rfoot 1.8547 -11.842
rtoes -24.8335
lfemur -47.0416 -0.214411 -14.7478
ltibia 43.4125
lfoot 4.10207 -5.51164
ltoes -16.3357
111
root 3.10383 21.0335 -5.47379 -180.914 -19.0307 185.762
lowerback 18.8836 2.79414 0.0691995
upperback 6.83249 2.72364 0.0683496
thorax -3.21191 0.940032 -0.519156
lowerneck -5.97608 -6.85682 -9.7241
upperneck 9.39379 -9.27845 8.56519
head 4.64335 -4.50881 3.62443
rclavicle 2.08724e-014 -3.10104e-014
rhumerus 3.86955 -2.19669 -20.1867
rradius 50.2514
rwrist -4.42331
rhand -24.0729 -4.42982
rfingers 7.12502
rthumb 2.40699 -34.396
lclavicle 2.08724e-014 -3.10104e-014
lhumerus -73.4122 -17.587 71.698
lradius 64.095
lwrist 12.6712
lhand -19.6168 -12.3905
lfingers 7.12502
lthumb 6.70971 17.4832
rfemur -37.9327 -5.91529 20.1056
rtibia 37.3364
rfoot 4.51676 -12.2127
rtoes -22.9466
lfemur -46.4561 -1.47161 -14.051
ltibia 42.6372
lfoot 4.60886 -5.30596
ltoes -16.577
112
root 3.05022 20.7599 -5.93026 -181.096 -18.8831 185.514
lowerback 18.2789 2.95258 -0.175803
upperback 6.82549 2.91433 0.0312579
thorax -2.91584 1.04382 -0.43866
lowerneck -5.91424 -6.92089 -9.82594
upperneck 9.70942 -9.39442 8.5719
head 4.74529 -4.5731 3.63197
rclavicle 5.92378e-014 -1.59028e-015
rhumerus 5.66067 -4.20138 -20.2532
rradius 50.4054
rwrist -5.08386
rhand -24.344 -4.57188
rfingers 7.12502
rthumb 2.14509 -34.5408
lclavicle 5.92378e-014 -1.59028e-015
lhumerus -75.6075 -17.7972 72.7094
lradius 65.8008
lwrist 14.468
lhand -19.3499 -11.9745
lfingers 7.12502
lthumb 6.96738 17.8908
rfemur -36.8202 -5.77523 19.6921
rtibia 36.4885
rfoot 7.11691 -12.7115
rtoes -20.7946
lfemur -45.8494 -2.52901 -13.5507
ltibia 42.0928
lfoot 5.15678 -5.39161
ltoes -16.5917
113
root 2.99632 20.4735 -6.38862 -181.34 -18.7984 185.272
lowerback 17.6951 3.125 -0.396039
upperback 6.8243 3.13118 0.0253294
thorax -2.62488 1.15942 -0.342017
lowerneck -5.83232 -7.01224 -9.95078
upperneck 10.0057 -9.54473 8.56665
head 4.84207 -4.65629 3.63727
rclavicle -2.127e-014 -7.95139e-015
rhumerus 7.29873 -5.99462 -20.3648
rradius 50.8292
rwrist -5.27687
rhand -24.5681 -4.59424
rfingers 7.12502
rthumb 1.92873 -34.5653
lclavicle -2.127e-014 -7.95139e-015
lhumerus -77.5516 -17.9706 73.7869
lradius 67.5514
lwrist 16.1208
lhand -19.0858 -11.7071
lfingers 7.12502
lthumb 7.22231 18.1497
rfemur -35.629 -5.59524 19.2428
rtibia 35.7753
rfoot 9.58298 -13.2215
rtoes -18.5998
lfemur -45.1952 -3.37102 -13.252
ltibia 41.759
lfoot 5.73061 -5.77708
ltoes -16.417
114
root 2.94239 20.174 -6.84821 -181.654 -18.7853 185.05
lowerback 17.1555 3.29943 -0.586282
upperback 6.82571 3.35842 0.0604712
thorax -2.35538 1.27895 -0.219643
lowerneck -5.74285 -7.11894 -10.1104
upperneck 10.2789 -9.7102 8.55017
head 4.93351 -4.74897 3.64354
rclavicle 6.77856e-014 -1.35174e-014
rhumerus 8.81043 -7.5238 -20.4827
rradius 51.5001
rwrist -5.0282
rhand -24.7327 -4.51755
rfingers 7.12502
rthumb 1.76968 -34.49
lclavicle 6.77856e-014 -1.35174e-014
lhumerus -79.22 -18.0501 74.8747
lradius 69.3368
lwrist 17.5147
lhand -18.8061 -11.5988
lfingers 7.12502
lthumb 7.49233 18.2486
rfemur -34.3662 -5.37715 18.778
rtibia 35.2309
rfoot 11.8529 -13.5891
rtoes -16.658
lfemur -44.4802 -3.99022 -13.142
ltibia 41.6213
lfoot 6.30836 -6.42547
ltoes -16.1492
115
root 2.8889 19.8612 -7.30848 -182.04 -18.8521 184.857
lowerback 16.6736 3.46918 -0.746467
upperback 6.82595 3.58616 0.136459
thorax -2.1188 1.39772 -0.0711369
lowerneck -5.66689 -7.24147 -10.2841
upperneck 10.5339 -9.88973 8.50894
head 5.02296 -4.84993 3.64252
rclavicle -7.25564e-014 4.77083e-015
rhumerus 10.1951 -8.76189 -20.5842
rradius 52.405
rwrist -4.47102
rhand -24.811 -4.39557
rfingers 7.12502
rthumb 1.6941 -34.3686
lclavicle -7.25564e-014 4.77083e-015
lhumerus -80.5756 -17.9998 75.9093
lradius 71.1146
lwrist 18.5407
lhand -18.5119 -11.6648
lfingers 7.12502
lthumb 7.77628 18.1722
rfemur -33.0539 -5.1267 18.314
rtibia 34.9095
rfoot 13.8673 -13.6597
rtoes -15.1652
lfemur -43.6977 -4.39887 -13.201
ltibia 41.6689
lfoot 6.87053 -7.25981
ltoes -15.976
116
root 2.83638 19.535 -7.76873 -182.492 -19.0073 184.701
lowerback 16.2583 3.6255 -0.870638
upperback 6.81694 3.80341 0.250343
thorax -1.92817 1.51096 0.0976607
lowerneck -5.60434 -7.37287 -10.4647
upperneck 10.7578 -10.074 8.45115
head 5.10553 -4.95385 3.63649
rclavicle 3.85642e-014 -2.26615e-014
rhumerus 11.4638 -9.71144 -20.6685
rradius 53.5171
rwrist -3.78671
rhand -24.7951 -4.25882
rfingers 7.12502
rthumb 1.70947 -34.2317
lclavicle 3.85642e-014 -2.26615e-014
lhumerus -81.6117 -17.8081 76.8574
lradius 72.8738
lwrist 19.167
lhand -18.2425 -11.8852
lfingers 7.12502
lthumb 8.03627 17.942
rfemur -31.7323 -4.8547 17.8714
rtibia 34.8743
rfoot 15.4959 -13.3379
rtoes -14.3996
lfemur -42.8587 -4.63127 -13.3908
ltibia 41.893
lfoot 7.41854 -8.18326
ltoes -15.935
117
root 2.78561 19.1954 -8.22765 -182.992 -19.2525 184.587
lowerback 15.92 3.76009 -0.963734
upperback 6.78205 3.99918 0.394847
thorax -1.80626 1.61433 0.281907
lowerneck -5.55301 -7.5094 -10.631
upperneck 10.9435 -10.2585 8.36944
head 5.17671 -5.05803 3.62037
rclavicle 2.18663e-015 -1.07344e-014
rhumerus 12.6303 -10.379 -20.7558
rradius 54.8121
rwrist -3.15227
rhand -24.7078 -4.14122
rfingers 7.12502
rthumb 1.79376 -34.1134
lclavicle 2.18663e-015 -1.07344e-014
lhumerus -82.3423 -17.4681 77.7054
lradius 74.612
lwrist 19.4197
lhand -18.03 -12.177
lfingers 7.12502
lthumb 8.24141 17.6423
rfemur -30.4066 -4.66255 17.5011
rtibia 35.2213
rfoot 16.0862 -12.6415
rtoes -13.7049
lfemur -41.9947 -4.7481 -13.6618
ltibia 42.292
lfoot 7.97169 -9.09996
ltoes -15.3847
118
root 2.73701 18.8442 -8.68343 -183.535 -19.5804 184.535
lowerback 15.658 3.86228 -1.0083
upperback 6.71415 4.16195 0.567035
thorax -1.75838 1.70299 0.469623
lowerneck -5.50901 -7.63836 -10.7967
upperneck 11.0759 -10.4265 8.29002
head 5.23147 -5.15348 3.6063
rclavicle 4.35338e-014 -2.50469e-014
rhumerus 13.7241 -10.7907 -20.8853
rradius 56.2658
rwrist -2.67917
rhand -24.5787 -4.03058
rfingers 7.12502
rthumb 1.91849 -34.0017
lclavicle 4.35338e-014 -2.50469e-014
lhumerus -82.7812 -16.9535 78.4509
lradius 76.3196
lwrist 19.3671
lhand -17.9368 -12.4659
lfingers 7.12502
lthumb 8.3313 17.3498
rfemur -29.1309 -4.51797 17.2172
rtibia 36.0426
rfoot 15.5086 -11.3048
rtoes -14.5787
lfemur -41.126 -4.77611 -13.967
ltibia 42.8632
lfoot 8.22929 -9.89293
ltoes -15.0901
119
root 2.69086 18.4833 -9.13363 -184.105 -19.9877 184.547
lowerback 15.4821 3.92563 -0.997903
upperback 6.59851 4.28459 0.752795
thorax -1.80331 1.77449 0.64191
lowerneck -5.41276 -7.7544 -10.9282
upperneck 11.0952 -10.5751 8.21028
head 5.23889 -5.23872 3.59161
rclavicle 4.54223e-014 -2.14687e-014
rhumerus 14.7534 -10.9812 -21.1107
rradius 57.8603
rwrist -2.42478
rhand -24.4274 -3.9146
rfingers 7.12502
rthumb 2.06462 -33.8844
lclavicle 4.54223e-014 -2.14687e-014
lhumerus -82.9425 -16.2591 79.0981
lradius 77.9566
lwrist 19.134
lhand -17.97 -12.7844
lfingers 7.12502
lthumb 8.29926 17.0326
rfemur -27.9113 -4.46629 17.0411
rtibia 37.3786
rfoot 13.3826 -9.61174
rtoes -16.5785
lfemur -40.273 -4.71546 -14.3014
ltibia 43.6711
lfoot 7.87462 -10.5981
ltoes -14.4675
120
root 2.64698 18.1139 -9.57606 -184.699 -20.4698 184.631
lowerback 15.4043 3.94162 -0.922553
upperback 6.42417 4.35772 0.943377
thorax -1.95667 1.82473 0.784123
lowerneck -5.21818 -7.84592 -11.0181
upperneck 10.9702 -10.6946 8.14659
head 5.18095 -5.30887 3.58371
rclavicle 4.63168e-014 -9.93923e-015
rhumerus 15.7323 -10.9799 -21.4984
rradius 59.5813
rwrist -2.35871
rhand -24.266 -3.76554
rfingers 7.12502
rthumb 2.22051 -33.7337
lclavicle 4.63168e-014 -9.93923e-015
lhumerus -82.8673 -15.3792 79.6974
lradius 79.5337
lwrist 18.8869
lhand -18.2157 -13.0034
lfingers 7.12502
lthumb 8.06212 16.8228
rfemur -26.7406 -4.54462 16.9903
rtibia 39.1727
rfoot 9.70787 -7.84755
rtoes -19.1909
lfemur -39.4594 -4.68904 -14.5917
ltibia 44.7305
lfoot 6.90414 -11.0718
ltoes -12.4513
121
root 2.60503 17.7493 -10.0046 -185.323 -21.0122 184.824
lowerback 15.4513 3.89878 -0.735471
upperback 6.18207 4.3729 1.13249
thorax -2.23746 1.84967 0.86319
lowerneck -4.91058 -7.90465 -11.0424
upperneck 10.6978 -10.7785 8.10178
head 5.0525 -5.36006 3.58139
rclavicle 6.49032e-014 -2.42517e-014
rhumerus 16.6654 -10.8063 -22.1212
rradius 61.4366
rwrist -2.40827
rhand -24.1431 -3.57155
rfingers 7.12502
rthumb 2.33917 -33.5385
lclavicle 6.49032e-014 -2.42517e-014
lhumerus -82.5574 -14.2978 80.2716
lradius 81.0242
lwrist 18.7533
lhand -18.6471 -12.9959
lfingers 7.12502
lthumb 7.64577 16.8459
rfemur -25.6675 -4.78328 17.1133
rtibia 41.4516
rfoot 4.67793 -6.43312
rtoes -22.5293
lfemur -38.778 -4.68336 -14.8227
ltibia 46.2429
lfoot 4.86575 -11.4259
ltoes -9.99867
